<svg width="16" height="26" viewBox="0 0 16 26" fill="none" xmlns="http://www.w3.org/2000/svg">
<path d="M9.5361 17.6196H5.17819C5.18958 16.5942 5.26933 15.7113 5.41745 14.9707C5.57695 14.2188 5.84469 13.5409 6.22067 12.937C6.60804 12.3332 7.12073 11.735 7.75875 11.1426C8.29424 10.6641 8.76136 10.2083 9.16012 9.77539C9.55888 9.34245 9.8722 8.89811 10.1001 8.44238C10.3279 7.97526 10.4419 7.45687 10.4419 6.88721C10.4419 6.2264 10.3393 5.67952 10.1342 5.24658C9.94056 4.80225 9.64433 4.46615 9.24557 4.23828C8.8582 4.01042 8.36829 3.89648 7.77584 3.89648C7.28594 3.89648 6.83021 4.00472 6.40866 4.22119C5.98711 4.42627 5.63961 4.74528 5.36618 5.17822C5.10413 5.61117 4.96741 6.18083 4.95602 6.88721H-3.43323e-05C0.0341454 5.32633 0.393032 4.0389 1.07663 3.0249C1.77161 1.99951 2.70016 1.24186 3.86227 0.751953C5.02438 0.250651 6.3289 0 7.77584 0C9.3709 0 10.7381 0.262044 11.8774 0.786133C13.0167 1.29883 13.8883 2.05648 14.4922 3.05908C15.096 4.05029 15.3979 5.25798 15.3979 6.68213C15.3979 7.67334 15.2042 8.55632 14.8169 9.33105C14.4295 10.0944 13.9225 10.8065 13.2959 11.4673C12.6692 12.1281 11.9799 12.8117 11.228 13.5181C10.5786 14.0991 10.1342 14.7087 9.89499 15.3467C9.66712 15.9847 9.54749 16.7424 9.5361 17.6196ZM4.66549 22.9004C4.66549 22.1712 4.91614 21.5674 5.41745 21.0889C5.91875 20.599 6.59095 20.354 7.43405 20.354C8.26575 20.354 8.93226 20.599 9.43356 21.0889C9.94625 21.5674 10.2026 22.1712 10.2026 22.9004C10.2026 23.6068 9.94625 24.2049 9.43356 24.6948C8.93226 25.1847 8.26575 25.4297 7.43405 25.4297C6.59095 25.4297 5.91875 25.1847 5.41745 24.6948C4.91614 24.2049 4.66549 23.6068 4.66549 22.9004Z" fill="black"/>
</svg>
